STARTFONT 2.1
FONT -Monotype-Times New Roman-Regular-I-Normal--17-120-100-100-P-82-iso8859-4
SIZE 12 100 100
FONTBOUNDINGBOX 20 19 -3 -4

STARTPROPERTIES 24
FOUNDRY "Monotype"
FAMILY_NAME "Times New Roman"
WEIGHT_NAME "Regular"
SLANT "I"
SETWIDTH_NAME "Normal"
ADD_STYLE_NAME ""
PIXEL_SIZE 17
POINT_SIZE 120
RESOLUTION_X 100
RESOLUTION_Y 100
SPACING "P"
AVERAGE_WIDTH 82
CHARSET_REGISTRY "iso8859"
CHARSET_ENCODING "4"
FACE_NAME "Times New Roman Italic ISO Latin4"
_DEC_DEVICE_FONTNAMES "PS=timesnewroman-it-lat4"
COPYRIGHT "Copyright (c) 1994 Monotype Typography Ltd."
CAP_HEIGHT 13
X_HEIGHT 8
WEIGHT 10
QUAD_WIDTH 9
DEFAULT_CHAR 160
FONT_DESCENT 4
FONT_ASCENT 16
ENDPROPERTIES

CHARS 191

STARTCHAR space
ENCODING 32
SWIDTH 250 0
DWIDTH 4 0
BBX 0 0 0 0
BITMAP
ENDCHAR

STARTCHAR exclam
ENCODING 33
SWIDTH 333 0
DWIDTH 6 0
BBX 4 12 1 0
BITMAP
30
30
30
60
60
60
60
40
40
00
C0
C0
ENDCHAR

STARTCHAR quotedbl
ENCODING 34
SWIDTH 420 0
DWIDTH 7 0
BBX 5 5 1 7
BITMAP
48
D8
D8
90
90
ENDCHAR

STARTCHAR numbersign
ENCODING 35
SWIDTH 500 0
DWIDTH 9 0
BBX 10 12 0 0
BITMAP
0880
0880
1100
1100
7FC0
1100
2200
FF80
2200
2200
4400
4400
ENDCHAR

STARTCHAR dollar
ENCODING 36
SWIDTH 500 0
DWIDTH 9 0
BBX 9 14 0 -1
BITMAP
0200
0F00
1580
3580
3400
3400
1C00
0E00
1600
1600
D600
D400
7800
2000
ENDCHAR

STARTCHAR percent
ENCODING 37
SWIDTH 833 0
DWIDTH 14 0
BBX 10 12 2 0
BITMAP
0040
3080
5880
D900
DA00
D400
6580
0AC0
16C0
26C0
4680
8300
ENDCHAR

STARTCHAR ampersand
ENCODING 38
SWIDTH 778 0
DWIDTH 13 0
BBX 12 12 0 0
BITMAP
0380
06C0
0CC0
0D80
0700
1C00
6670
6620
C240
C380
6720
39C0
ENDCHAR

STARTCHAR quoteright
ENCODING 39
SWIDTH 333 0
DWIDTH 6 0
BBX 2 4 3 8
BITMAP
40
C0
40
80
ENDCHAR

STARTCHAR parenleft
ENCODING 40
SWIDTH 333 0
DWIDTH 6 0
BBX 6 16 0 -4
BITMAP
0C
18
30
60
60
C0
C0
C0
C0
C0
C0
C0
C0
C0
60
60
ENDCHAR

STARTCHAR parenright
ENCODING 41
SWIDTH 333 0
DWIDTH 6 0
BBX 6 16 -2 -4
BITMAP
18
18
0C
0C
0C
0C
0C
0C
0C
0C
0C
18
18
30
60
C0
ENDCHAR

STARTCHAR asterisk
ENCODING 42
SWIDTH 500 0
DWIDTH 9 0
BBX 7 6 2 6
BITMAP
10
D6
7C
7C
D6
10
ENDCHAR

STARTCHAR plus
ENCODING 43
SWIDTH 675 0
DWIDTH 11 0
BBX 9 9 1 0
BITMAP
0800
0800
0800
0800
FF80
0800
0800
0800
0800
ENDCHAR

STARTCHAR comma
ENCODING 44
SWIDTH 250 0
DWIDTH 4 0
BBX 2 4 0 -2
BITMAP
40
C0
40
80
ENDCHAR

STARTCHAR minus
ENCODING 45
SWIDTH 675 0
DWIDTH 11 0
BBX 9 1 1 4
BITMAP
FF80
ENDCHAR

STARTCHAR period
ENCODING 46
SWIDTH 250 0
DWIDTH 4 0
BBX 2 2 0 0
BITMAP
C0
C0
ENDCHAR

STARTCHAR slash
ENCODING 47
SWIDTH 278 0
DWIDTH 5 0
BBX 6 12 0 0
BITMAP
04
04
08
08
10
10
20
20
40
40
80
80
ENDCHAR

STARTCHAR zero
ENCODING 48
SWIDTH 500 0
DWIDTH 8 0
BBX 8 12 0 0
BITMAP
0E
1B
33
63
63
C3
C3
C6
C6
CC
D8
70
ENDCHAR

STARTCHAR one
ENCODING 49
SWIDTH 500 0
DWIDTH 8 0
BBX 5 12 1 0
BITMAP
08
38
18
18
30
30
30
30
60
60
60
F0
ENDCHAR

STARTCHAR two
ENCODING 50
SWIDTH 500 0
DWIDTH 8 0
BBX 8 12 0 0
BITMAP
0E
1F
23
03
03
06
0C
10
20
42
FC
F8
ENDCHAR

STARTCHAR three
ENCODING 51
SWIDTH 500 0
DWIDTH 8 0
BBX 8 12 0 0
BITMAP
1E
33
03
02
04
38
0C
06
06
06
CC
70
ENDCHAR

STARTCHAR four
ENCODING 52
SWIDTH 500 0
DWIDTH 8 0
BBX 7 12 0 0
BITMAP
02
06
0E
16
26
4C
8C
FE
FE
18
18
18
ENDCHAR

STARTCHAR five
ENCODING 53
SWIDTH 500 0
DWIDTH 8 0
BBX 7 12 0 0
BITMAP
1E
1E
20
30
78
1C
0C
0C
04
04
C8
F0
ENDCHAR

STARTCHAR six
ENCODING 54
SWIDTH 500 0
DWIDTH 8 0
BBX 8 12 0 0
BITMAP
03
0C
18
30
7C
66
C6
C6
C6
C6
CC
78
ENDCHAR

STARTCHAR seven
ENCODING 55
SWIDTH 500 0
DWIDTH 8 0
BBX 7 12 1 0
BITMAP
7E
7E
82
04
08
08
10
20
20
40
40
80
ENDCHAR

STARTCHAR eight
ENCODING 56
SWIDTH 500 0
DWIDTH 8 0
BBX 8 12 0 0
BITMAP
1C
36
63
63
36
18
6C
C6
C6
C6
6C
38
ENDCHAR

STARTCHAR nine
ENCODING 57
SWIDTH 500 0
DWIDTH 8 0
BBX 8 12 0 0
BITMAP
1E
33
63
63
63
63
66
3E
0C
18
30
C0
ENDCHAR

STARTCHAR colon
ENCODING 58
SWIDTH 333 0
DWIDTH 6 0
BBX 4 8 0 0
BITMAP
30
30
00
00
00
00
C0
C0
ENDCHAR

STARTCHAR semicolon
ENCODING 59
SWIDTH 333 0
DWIDTH 6 0
BBX 4 10 0 -2
BITMAP
30
30
00
00
00
00
40
C0
40
80
ENDCHAR

STARTCHAR less
ENCODING 60
SWIDTH 675 0
DWIDTH 11 0
BBX 8 8 2 0
BITMAP
03
0C
30
C0
C0
30
0C
03
ENDCHAR

STARTCHAR equal
ENCODING 61
SWIDTH 675 0
DWIDTH 11 0
BBX 9 4 1 2
BITMAP
FF80
0000
0000
FF80
ENDCHAR

STARTCHAR greater
ENCODING 62
SWIDTH 675 0
DWIDTH 11 0
BBX 8 8 2 0
BITMAP
C0
30
0C
03
03
0C
30
C0
ENDCHAR

STARTCHAR question
ENCODING 63
SWIDTH 500 0
DWIDTH 9 0
BBX 7 12 1 0
BITMAP
38
4C
66
06
0C
18
30
60
40
00
C0
C0
ENDCHAR

STARTCHAR at
ENCODING 64
SWIDTH 920 0
DWIDTH 16 0
BBX 14 16 1 -4
BITMAP
07E0
1810
2008
2004
43A4
4664
8C64
8C64
98C4
99C8
9AD0
4CE4
4004
2018
1860
0780
ENDCHAR

STARTCHAR A
ENCODING 65
SWIDTH 611 0
DWIDTH 10 0
BBX 11 12 -2 0
BITMAP
0040
00C0
01C0
02C0
04C0
04C0
08C0
1FC0
20C0
20C0
40C0
E1E0
ENDCHAR

STARTCHAR B
ENCODING 66
SWIDTH 611 0
DWIDTH 10 0
BBX 10 12 -1 0
BITMAP
3F80
18C0
18C0
18C0
3180
3E00
3300
3180
6180
6180
6300
FE00
ENDCHAR

STARTCHAR C
ENCODING 67
SWIDTH 667 0
DWIDTH 11 0
BBX 11 12 0 0
BITMAP
07A0
1840
3040
6040
6000
C000
C000
C000
C000
C080
6100
3E00
ENDCHAR

STARTCHAR D
ENCODING 68
SWIDTH 722 0
DWIDTH 12 0
BBX 12 12 -1 0
BITMAP
3FC0
1860
1830
1830
3030
3030
3030
3060
6060
60C0
6180
FF00
ENDCHAR

STARTCHAR E
ENCODING 69
SWIDTH 611 0
DWIDTH 10 0
BBX 11 12 -1 0
BITMAP
3FE0
1820
1820
1800
3080
3F00
3100
3100
6000
6040
6080
FF80
ENDCHAR

STARTCHAR F
ENCODING 70
SWIDTH 611 0
DWIDTH 10 0
BBX 11 12 -1 0
BITMAP
3FE0
1820
1820
1800
3080
3F00
3100
3100
6000
6000
6000
F000
ENDCHAR

STARTCHAR G
ENCODING 71
SWIDTH 722 0
DWIDTH 12 0
BBX 11 12 0 0
BITMAP
07A0
1860
3020
6020
6000
C000
C1E0
C0C0
C0C0
C180
6180
3E00
ENDCHAR

STARTCHAR H
ENCODING 72
SWIDTH 722 0
DWIDTH 12 0
BBX 13 12 -1 0
BITMAP
3C78
1830
1830
1830
3060
3FE0
3060
3060
60C0
60C0
60C0
F1E0
ENDCHAR

STARTCHAR I
ENCODING 73
SWIDTH 333 0
DWIDTH 6 0
BBX 6 12 -1 0
BITMAP
3C
18
18
18
30
30
30
30
60
60
60
F0
ENDCHAR

STARTCHAR J
ENCODING 74
SWIDTH 444 0
DWIDTH 8 0
BBX 9 12 -1 0
BITMAP
0780
0300
0300
0300
0600
0600
0600
0600
0C00
CC00
C800
7000
ENDCHAR

STARTCHAR K
ENCODING 75
SWIDTH 667 0
DWIDTH 11 0
BBX 11 12 -1 0
BITMAP
3CE0
1840
1880
1900
3200
3400
3C00
3600
6300
6180
60C0
F1E0
ENDCHAR

STARTCHAR L
ENCODING 76
SWIDTH 556 0
DWIDTH 9 0
BBX 9 12 -1 0
BITMAP
3C00
1800
1800
1800
3000
3000
3000
3000
6000
6080
6100
FF00
ENDCHAR

STARTCHAR M
ENCODING 77
SWIDTH 833 0
DWIDTH 14 0
BBX 15 12 -1 0
BITMAP
380E
181C
1C2C
1C4C
2C58
2C98
2C98
2D18
4730
4630
4430
E478
ENDCHAR

STARTCHAR N
ENCODING 78
SWIDTH 667 0
DWIDTH 11 0
BBX 12 12 -1 0
BITMAP
3830
1C20
1C20
1620
2640
2640
2340
2340
4380
4180
4180
E080
ENDCHAR

STARTCHAR O
ENCODING 79
SWIDTH 722 0
DWIDTH 12 0
BBX 11 12 0 0
BITMAP
0F80
18C0
3060
6060
6060
C060
C060
C0C0
C0C0
C180
6300
3E00
ENDCHAR

STARTCHAR P
ENCODING 80
SWIDTH 611 0
DWIDTH 10 0
BBX 10 12 -1 0
BITMAP
3F80
18C0
18C0
18C0
30C0
3180
3E00
3000
6000
6000
6000
F000
ENDCHAR

STARTCHAR Q
ENCODING 81
SWIDTH 722 0
DWIDTH 12 0
BBX 11 15 0 -3
BITMAP
0F80
18C0
3060
6060
6060
C060
C060
C0C0
C0C0
C180
6300
3E00
1000
7E40
8F80
ENDCHAR

STARTCHAR R
ENCODING 82
SWIDTH 611 0
DWIDTH 10 0
BBX 10 12 -1 0
BITMAP
3F80
18C0
18C0
18C0
30C0
3180
3E00
3600
6300
6300
6180
F1C0
ENDCHAR

STARTCHAR S
ENCODING 83
SWIDTH 500 0
DWIDTH 9 0
BBX 8 12 0 0
BITMAP
1D
33
61
61
70
38
1C
0E
86
86
CC
B8
ENDCHAR

STARTCHAR T
ENCODING 84
SWIDTH 556 0
DWIDTH 9 0
BBX 10 12 0 0
BITMAP
7FC0
8C40
8C40
0C00
1800
1800
1800
1800
3000
3000
3000
7800
ENDCHAR

STARTCHAR U
ENCODING 85
SWIDTH 722 0
DWIDTH 12 0
BBX 12 12 0 0
BITMAP
7870
3020
3020
3020
6040
6040
6040
C040
C080
C080
6100
3E00
ENDCHAR

STARTCHAR V
ENCODING 86
SWIDTH 611 0
DWIDTH 10 0
BBX 11 12 0 0
BITMAP
F0E0
6040
6080
6080
6100
6200
6400
6400
6800
7000
6000
4000
ENDCHAR

STARTCHAR W
ENCODING 87
SWIDTH 833 0
DWIDTH 14 0
BBX 15 12 0 0
BITMAP
F78E
6304
6308
6310
6720
6720
6B40
7380
6300
6300
4200
4200
ENDCHAR

STARTCHAR X
ENCODING 88
SWIDTH 611 0
DWIDTH 10 0
BBX 14 12 -2 0
BITMAP
1E3C
0C10
0C20
0640
0680
0300
0300
0580
0980
10C0
20C0
F1E0
ENDCHAR

STARTCHAR Y
ENCODING 89
SWIDTH 556 0
DWIDTH 9 0
BBX 10 12 1 0
BITMAP
F1C0
6080
6100
6200
3400
3800
3000
3000
6000
6000
6000
F000
ENDCHAR

STARTCHAR Z
ENCODING 90
SWIDTH 556 0
DWIDTH 9 0
BBX 12 12 -2 0
BITMAP
0FF0
0860
10C0
0180
0300
0600
0600
0C00
1800
3040
6080
FF80
ENDCHAR

STARTCHAR bracketleft
ENCODING 91
SWIDTH 389 0
DWIDTH 7 0
BBX 7 15 0 -3
BITMAP
1E
18
18
18
30
30
30
30
60
60
60
60
C0
C0
F0
ENDCHAR

STARTCHAR backslash
ENCODING 92
SWIDTH 278 0
DWIDTH 5 0
BBX 6 12 0 0
BITMAP
80
80
40
40
20
20
10
10
08
08
04
04
ENDCHAR

STARTCHAR bracketright
ENCODING 93
SWIDTH 389 0
DWIDTH 7 0
BBX 7 15 -1 -3
BITMAP
1E
06
06
06
0C
0C
0C
0C
18
18
18
18
30
30
F0
ENDCHAR

STARTCHAR asciicircum
ENCODING 94
SWIDTH 422 0
DWIDTH 7 0
BBX 7 5 0 6
BITMAP
10
28
44
44
82
ENDCHAR

STARTCHAR underscore
ENCODING 95
SWIDTH 500 0
DWIDTH 9 0
BBX 9 1 0 -2
BITMAP
FF80
ENDCHAR

STARTCHAR quoteleft
ENCODING 96
SWIDTH 333 0
DWIDTH 6 0
BBX 2 4 2 8
BITMAP
40
80
C0
80
ENDCHAR

STARTCHAR a
ENCODING 97
SWIDTH 500 0
DWIDTH 9 0
BBX 9 8 0 0
BITMAP
1D80
3300
6300
6300
C600
CE00
D600
6700
ENDCHAR

STARTCHAR b
ENCODING 98
SWIDTH 500 0
DWIDTH 8 0
BBX 8 12 0 0
BITMAP
70
30
30
30
6E
73
63
63
C6
C6
CC
70
ENDCHAR

STARTCHAR c
ENCODING 99
SWIDTH 444 0
DWIDTH 8 0
BBX 7 8 1 0
BITMAP
1C
36
66
C0
C0
C0
C4
78
ENDCHAR

STARTCHAR d
ENCODING 100
SWIDTH 500 0
DWIDTH 8 0
BBX 9 12 0 0
BITMAP
0380
0180
0180
0180
1B00
3700
6300
6300
C600
C600
CE00
7700
ENDCHAR

STARTCHAR e
ENCODING 101
SWIDTH 444 0
DWIDTH 8 0
BBX 7 8 1 0
BITMAP
1C
36
66
FC
C0
C0
C4
78
ENDCHAR

STARTCHAR f
ENCODING 102
SWIDTH 278 0
DWIDTH 5 0
BBX 11 16 -3 -4
BITMAP
00E0
01A0
0300
0300
0F80
0600
0600
0600
0C00
0C00
0C00
0C00
1800
1800
B000
E000
ENDCHAR

STARTCHAR g
ENCODING 103
SWIDTH 500 0
DWIDTH 8 0
BBX 10 11 -1 -3
BITMAP
0F00
19C0
3180
3180
3300
1E00
3000
3E00
4300
C300
7C00
ENDCHAR

STARTCHAR h
ENCODING 104
SWIDTH 500 0
DWIDTH 8 0
BBX 8 12 0 0
BITMAP
70
30
30
30
66
6B
73
63
C6
C6
C6
C7
ENDCHAR

STARTCHAR i
ENCODING 105
SWIDTH 278 0
DWIDTH 5 0
BBX 4 11 1 0
BITMAP
30
30
00
E0
60
60
60
C0
C0
C0
E0
ENDCHAR

STARTCHAR j
ENCODING 106
SWIDTH 278 0
DWIDTH 5 0
BBX 7 15 -2 -4
BITMAP
06
06
00
1C
0C
0C
0C
18
18
18
18
30
30
A0
C0
ENDCHAR

STARTCHAR k
ENCODING 107
SWIDTH 444 0
DWIDTH 7 0
BBX 8 12 0 0
BITMAP
70
30
30
30
66
64
68
70
D8
CC
CD
C6
ENDCHAR

STARTCHAR l
ENCODING 108
SWIDTH 278 0
DWIDTH 5 0
BBX 4 12 1 0
BITMAP
70
30
30
30
60
60
60
60
C0
C0
C0
E0
ENDCHAR

STARTCHAR m
ENCODING 109
SWIDTH 722 0
DWIDTH 12 0
BBX 11 8 0 0
BITMAP
ECC0
7760
6660
6660
CCC0
CCC0
CCC0
CCE0
ENDCHAR

STARTCHAR n
ENCODING 110
SWIDTH 500 0
DWIDTH 8 0
BBX 8 8 0 0
BITMAP
E6
6B
73
63
C6
C6
C6
C7
ENDCHAR

STARTCHAR o
ENCODING 111
SWIDTH 500 0
DWIDTH 8 0
BBX 8 8 0 0
BITMAP
1E
33
63
C3
C3
C6
CC
78
ENDCHAR

STARTCHAR p
ENCODING 112
SWIDTH 500 0
DWIDTH 8 0
BBX 10 11 -2 -3
BITMAP
3B80
1CC0
18C0
18C0
30C0
3180
3B00
3600
6000
6000
F000
ENDCHAR

STARTCHAR q
ENCODING 113
SWIDTH 500 0
DWIDTH 8 0
BBX 8 11 0 -3
BITMAP
0D
33
63
63
C6
C6
CE
76
0C
0C
1E
ENDCHAR

STARTCHAR r
ENCODING 114
SWIDTH 389 0
DWIDTH 7 0
BBX 6 8 1 0
BITMAP
EC
74
60
60
C0
C0
C0
C0
ENDCHAR

STARTCHAR s
ENCODING 115
SWIDTH 389 0
DWIDTH 7 0
BBX 7 8 0 0
BITMAP
3A
64
64
30
18
4C
4C
B8
ENDCHAR

STARTCHAR t
ENCODING 116
SWIDTH 278 0
DWIDTH 5 0
BBX 4 10 1 0
BITMAP
20
60
F0
60
60
60
C0
C0
D0
60
ENDCHAR

STARTCHAR u
ENCODING 117
SWIDTH 500 0
DWIDTH 8 0
BBX 8 8 0 0
BITMAP
E3
63
63
63
C6
CE
D6
67
ENDCHAR

STARTCHAR v
ENCODING 118
SWIDTH 444 0
DWIDTH 8 0
BBX 7 8 0 0
BITMAP
26
E2
62
64
68
70
60
40
ENDCHAR

STARTCHAR w
ENCODING 119
SWIDTH 667 0
DWIDTH 11 0
BBX 11 8 0 0
BITMAP
2660
E620
6620
6640
6E80
7700
6600
4400
ENDCHAR

STARTCHAR x
ENCODING 120
SWIDTH 444 0
DWIDTH 8 0
BBX 8 8 0 0
BITMAP
63
35
34
18
18
2C
AD
C6
ENDCHAR

STARTCHAR y
ENCODING 121
SWIDTH 444 0
DWIDTH 8 0
BBX 8 12 -1 -4
BITMAP
13
71
31
31
1A
1A
1C
18
10
20
A0
C0
ENDCHAR

STARTCHAR z
ENCODING 122
SWIDTH 389 0
DWIDTH 7 0
BBX 7 8 0 0
BITMAP
1E
3C
48
10
10
22
7C
F8
ENDCHAR

STARTCHAR braceleft
ENCODING 123
SWIDTH 400 0
DWIDTH 7 0
BBX 7 16 0 -4
BITMAP
06
0C
18
30
30
30
30
C0
60
60
60
C0
C0
C0
C0
60
ENDCHAR

STARTCHAR bar
ENCODING 124
SWIDTH 200 0
DWIDTH 3 0
BBX 1 16 1 -4
BITMAP
80
80
80
80
80
80
80
80
80
80
80
80
80
80
80
80
ENDCHAR

STARTCHAR braceright
ENCODING 125
SWIDTH 400 0
DWIDTH 7 0
BBX 7 16 -2 -4
BITMAP
0C
06
06
06
06
0C
0C
0C
06
18
18
18
18
30
60
C0
ENDCHAR

STARTCHAR asciitilde
ENCODING 126
SWIDTH 541 0
DWIDTH 9 0
BBX 9 3 0 4
BITMAP
3880
7F00
8E00
ENDCHAR

STARTCHAR space
ENCODING 160
SWIDTH 250 0
DWIDTH 5 0
BBX 0 0 0 0
BITMAP
ENDCHAR

STARTCHAR Aogonek
ENCODING 161
SWIDTH 611 0
DWIDTH 10 0
BBX 11 15 -2 -3
BITMAP
0040
00C0
01C0
02C0
04C0
04C0
08C0
1FC0
20C0
20C0
40C0
E1E0
0080
0080
0060
ENDCHAR

STARTCHAR afii240
ENCODING 162
SWIDTH 444 0
DWIDTH 8 0
BBX 8 8 -1 0
BITMAP
7B
32
34
38
6C
66
66
F7
ENDCHAR

STARTCHAR Rcommaaccent
ENCODING 163
SWIDTH 611 0
DWIDTH 10 0
BBX 10 16 -1 -4
BITMAP
3F80
18C0
18C0
18C0
30C0
3180
3E00
3600
6300
6300
6180
F1C0
0000
1800
0800
1000
ENDCHAR

STARTCHAR currency
ENCODING 164
SWIDTH 500 0
DWIDTH 9 0
BBX 8 8 1 0
BITMAP
BD
42
81
81
81
81
42
BD
ENDCHAR

STARTCHAR Itilde
ENCODING 165
SWIDTH 333 0
DWIDTH 6 0
BBX 7 15 -1 0
BITMAP
0A
14
00
3C
18
18
18
30
30
30
30
60
60
60
F0
ENDCHAR

STARTCHAR Lcommaaccent
ENCODING 166
SWIDTH 556 0
DWIDTH 9 0
BBX 9 16 -1 -4
BITMAP
3C00
1800
1800
1800
3000
3000
3000
3000
6000
6080
6100
FF00
0000
3000
1000
2000
ENDCHAR

STARTCHAR section
ENCODING 167
SWIDTH 500 0
DWIDTH 9 0
BBX 8 16 0 -4
BITMAP
0E
1B
33
30
18
2C
66
66
66
66
34
18
0C
CC
D8
70
ENDCHAR

STARTCHAR hungarumlaut
ENCODING 168
SWIDTH 333 0
DWIDTH 6 0
BBX 5 2 1 10
BITMAP
48
90
ENDCHAR

STARTCHAR Scaron
ENCODING 169
SWIDTH 500 0
DWIDTH 9 0
BBX 8 15 0 0
BITMAP
09
06
00
1D
33
61
61
70
38
1C
0E
86
86
CC
B8
ENDCHAR

STARTCHAR Emacron
ENCODING 170
SWIDTH 611 0
DWIDTH 10 0
BBX 11 14 -1 0
BITMAP
07C0
0000
3FE0
1820
1820
1800
3080
3F00
3100
3100
6000
6040
6080
FF80
ENDCHAR

STARTCHAR Gcommaaccent
ENCODING 171
SWIDTH 722 0
DWIDTH 12 0
BBX 11 16 0 -4
BITMAP
07A0
1860
3020
6020
6000
C000
C1E0
C0C0
C0C0
C180
6180
3E00
0000
1800
0800
1000
ENDCHAR

STARTCHAR afii237
ENCODING 172
SWIDTH 556 0
DWIDTH 9 0
BBX 10 12 0 0
BITMAP
7FC0
8C40
8C40
0C00
1800
FF00
1800
1800
3000
3000
3000
7800
ENDCHAR

STARTCHAR hyphen
ENCODING 173
SWIDTH 333 0
DWIDTH 6 0
BBX 5 1 1 6
BITMAP
F8
ENDCHAR

STARTCHAR Zcaron
ENCODING 174
SWIDTH 556 0
DWIDTH 9 0
BBX 12 15 -2 0
BITMAP
0120
00C0
0000
0FF0
0860
10C0
0180
0300
0600
0600
0C00
1800
3040
6080
FF80
ENDCHAR

STARTCHAR macron
ENCODING 175
SWIDTH 333 0
DWIDTH 6 0
BBX 5 1 1 10
BITMAP
F8
ENDCHAR

STARTCHAR degree
ENCODING 176
SWIDTH 400 0
DWIDTH 7 0
BBX 5 5 1 7
BITMAP
70
88
88
88
70
ENDCHAR

STARTCHAR aogonek
ENCODING 177
SWIDTH 500 0
DWIDTH 9 0
BBX 9 11 0 -3
BITMAP
1D80
3300
6300
6300
C600
CE00
D600
6700
0400
0400
0300
ENDCHAR

STARTCHAR ogonek
ENCODING 178
SWIDTH 333 0
DWIDTH 6 0
BBX 3 3 1 -3
BITMAP
80
80
60
ENDCHAR

STARTCHAR rcommaaccent
ENCODING 179
SWIDTH 389 0
DWIDTH 7 0
BBX 7 12 0 -4
BITMAP
76
3A
30
30
60
60
60
60
00
C0
40
80
ENDCHAR

STARTCHAR acute
ENCODING 180
SWIDTH 333 0
DWIDTH 6 0
BBX 2 2 3 10
BITMAP
40
80
ENDCHAR

STARTCHAR itilde
ENCODING 181
SWIDTH 278 0
DWIDTH 5 0
BBX 5 11 1 0
BITMAP
28
50
00
E0
60
60
60
C0
C0
C0
E0
ENDCHAR

STARTCHAR lcommaaccent
ENCODING 182
SWIDTH 278 0
DWIDTH 5 0
BBX 5 16 0 -4
BITMAP
38
18
18
18
30
30
30
30
60
60
60
70
00
C0
40
80
ENDCHAR

STARTCHAR caron
ENCODING 183
SWIDTH 333 0
DWIDTH 6 0
BBX 4 2 2 9
BITMAP
90
60
ENDCHAR

STARTCHAR commaaccent
ENCODING 184
SWIDTH 333 0
DWIDTH 6 0
BBX 2 3 2 -4
BITMAP
C0
40
80
ENDCHAR

STARTCHAR scaron
ENCODING 185
SWIDTH 389 0
DWIDTH 7 0
BBX 7 12 0 0
BITMAP
12
0C
00
00
3A
64
64
30
18
4C
4C
B8
ENDCHAR

STARTCHAR emacron
ENCODING 186
SWIDTH 444 0
DWIDTH 8 0
BBX 7 11 1 0
BITMAP
1E
00
00
1C
36
66
FC
C0
C0
C4
78
ENDCHAR

STARTCHAR gcommaaccent
ENCODING 187
SWIDTH 500 0
DWIDTH 8 0
BBX 10 15 -1 -3
BITMAP
0100
0200
0300
0000
0F00
19C0
3180
3180
3300
1E00
3000
3E00
4300
C300
7C00
ENDCHAR

STARTCHAR afii253
ENCODING 188
SWIDTH 278 0
DWIDTH 5 0
BBX 6 10 0 0
BITMAP
10
30
78
30
FC
30
60
60
68
30
ENDCHAR

STARTCHAR afii238
ENCODING 189
SWIDTH 685 0
DWIDTH 12 0
BBX 11 12 0 0
BITMAP
3B80
1CC0
1860
1860
3060
3060
3060
3060
60C0
66C0
6680
F300
ENDCHAR

STARTCHAR zcaron
ENCODING 190
SWIDTH 389 0
DWIDTH 7 0
BBX 8 12 0 0
BITMAP
09
06
00
00
1E
3C
48
10
10
22
7C
F8
ENDCHAR

STARTCHAR afii254
ENCODING 191
SWIDTH 482 0
DWIDTH 8 0
BBX 8 12 0 -4
BITMAP
E6
6B
73
63
C6
C6
C6
C6
0C
0C
68
30
ENDCHAR

STARTCHAR Amacron
ENCODING 192
SWIDTH 611 0
DWIDTH 10 0
BBX 12 14 -2 0
BITMAP
00F0
0000
0040
00C0
01C0
02C0
04C0
04C0
08C0
1FC0
20C0
20C0
40C0
E1E0
ENDCHAR

STARTCHAR Aacute
ENCODING 193
SWIDTH 611 0
DWIDTH 10 0
BBX 12 15 -2 0
BITMAP
0010
0020
0000
0040
00C0
01C0
02C0
04C0
04C0
08C0
1FC0
20C0
20C0
40C0
E1E0
ENDCHAR

STARTCHAR Acircumflex
ENCODING 194
SWIDTH 611 0
DWIDTH 10 0
BBX 12 15 -2 0
BITMAP
0060
0090
0000
0040
00C0
01C0
02C0
04C0
04C0
08C0
1FC0
20C0
20C0
40C0
E1E0
ENDCHAR

STARTCHAR Atilde
ENCODING 195
SWIDTH 611 0
DWIDTH 10 0
BBX 12 15 -2 0
BITMAP
0050
00A0
0000
0040
00C0
01C0
02C0
04C0
04C0
08C0
1FC0
20C0
20C0
40C0
E1E0
ENDCHAR

STARTCHAR Adieresis
ENCODING 196
SWIDTH 611 0
DWIDTH 10 0
BBX 12 14 -2 0
BITMAP
0090
0000
0040
00C0
01C0
02C0
04C0
04C0
08C0
1FC0
20C0
20C0
40C0
E1E0
ENDCHAR

STARTCHAR Aring
ENCODING 197
SWIDTH 611 0
DWIDTH 10 0
BBX 11 14 -2 0
BITMAP
0040
00A0
0040
00C0
01C0
02C0
04C0
04C0
08C0
1FC0
20C0
20C0
40C0
E1E0
ENDCHAR

STARTCHAR AE
ENCODING 198
SWIDTH 889 0
DWIDTH 15 0
BBX 16 12 -1 0
BITMAP
01FF
00E1
0161
0260
04C4
04F8
08C8
1FC8
1180
2182
4184
E3FC
ENDCHAR

STARTCHAR Iogonek
ENCODING 199
SWIDTH 333 0
DWIDTH 6 0
BBX 6 15 -1 -3
BITMAP
3C
18
18
18
30
30
30
30
60
60
60
F0
40
40
30
ENDCHAR

STARTCHAR Ccaron
ENCODING 200
SWIDTH 667 0
DWIDTH 11 0
BBX 11 15 0 0
BITMAP
0240
0180
0000
07A0
1840
3040
6040
6000
C000
C000
C000
C000
C080
6100
3E00
ENDCHAR

STARTCHAR Eacute
ENCODING 201
SWIDTH 611 0
DWIDTH 10 0
BBX 11 15 -1 0
BITMAP
0080
0100
0000
3FE0
1820
1820
1800
3080
3F00
3100
3100
6000
6040
6080
FF80
ENDCHAR

STARTCHAR Eogonek
ENCODING 202
SWIDTH 611 0
DWIDTH 10 0
BBX 11 15 -1 -3
BITMAP
3FE0
1820
1820
1800
3080
3F00
3100
3100
6000
6040
6080
FF80
0400
0400
0300
ENDCHAR

STARTCHAR Edieresis
ENCODING 203
SWIDTH 611 0
DWIDTH 10 0
BBX 11 14 -1 0
BITMAP
0240
0000
3FE0
1820
1820
1800
3080
3F00
3100
3100
6000
6040
6080
FF80
ENDCHAR

STARTCHAR Edotaccent
ENCODING 204
SWIDTH 611 0
DWIDTH 10 0
BBX 11 14 -1 0
BITMAP
0100
0000
3FE0
1820
1820
1800
3080
3F00
3100
3100
6000
6040
6080
FF80
ENDCHAR

STARTCHAR Iacute
ENCODING 205
SWIDTH 333 0
DWIDTH 6 0
BBX 6 15 -1 0
BITMAP
04
08
00
3C
18
18
18
30
30
30
30
60
60
60
F0
ENDCHAR

STARTCHAR Icircumflex
ENCODING 206
SWIDTH 333 0
DWIDTH 6 0
BBX 7 15 -1 0
BITMAP
0C
12
00
3C
18
18
18
30
30
30
30
60
60
60
F0
ENDCHAR

STARTCHAR Imacron
ENCODING 207
SWIDTH 333 0
DWIDTH 6 0
BBX 7 14 -1 0
BITMAP
1E
00
3C
18
18
18
30
30
30
30
60
60
60
F0
ENDCHAR

STARTCHAR Eth
ENCODING 208
SWIDTH 722 0
DWIDTH 12 0
BBX 12 12 -1 0
BITMAP
3FC0
1860
1830
1830
3030
7E30
3030
3060
6060
60C0
6180
FF00
ENDCHAR

STARTCHAR Ncommaaccent
ENCODING 209
SWIDTH 667 0
DWIDTH 11 0
BBX 12 16 -1 -4
BITMAP
3830
1C20
1C20
1620
2640
2640
2340
2340
4380
4180
4180
E080
0000
1800
0800
1000
ENDCHAR

STARTCHAR Omacron
ENCODING 210
SWIDTH 722 0
DWIDTH 12 0
BBX 11 14 0 0
BITMAP
07C0
0000
0F80
18C0
3060
6060
6060
C060
C060
C0C0
C0C0
C180
6300
3E00
ENDCHAR

STARTCHAR Kcommaaccent
ENCODING 211
SWIDTH 667 0
DWIDTH 11 0
BBX 11 16 -1 -4
BITMAP
3CE0
1840
1880
1900
3200
3400
3C00
3600
6300
6180
60C0
F1E0
0000
1800
0800
1000
ENDCHAR

STARTCHAR Ocircumflex
ENCODING 212
SWIDTH 722 0
DWIDTH 12 0
BBX 11 15 0 0
BITMAP
0180
0240
0000
0F80
18C0
3060
6060
6060
C060
C060
C0C0
C0C0
C180
6300
3E00
ENDCHAR

STARTCHAR Otilde
ENCODING 213
SWIDTH 722 0
DWIDTH 12 0
BBX 11 15 0 0
BITMAP
0140
0280
0000
0F80
18C0
3060
6060
6060
C060
C060
C0C0
C0C0
C180
6300
3E00
ENDCHAR

STARTCHAR Odieresis
ENCODING 214
SWIDTH 722 0
DWIDTH 12 0
BBX 11 14 0 0
BITMAP
0480
0000
0F80
18C0
3060
6060
6060
C060
C060
C0C0
C0C0
C180
6300
3E00
ENDCHAR

STARTCHAR multiply
ENCODING 215
SWIDTH 675 0
DWIDTH 11 0
BBX 7 7 2 1
BITMAP
82
44
28
10
28
44
82
ENDCHAR

STARTCHAR Oslash
ENCODING 216
SWIDTH 722 0
DWIDTH 12 0
BBX 11 12 0 0
BITMAP
0FA0
18C0
3160
6160
6260
C460
C460
C8C0
D0C0
D180
6300
BE00
ENDCHAR

STARTCHAR Uogonek
ENCODING 217
SWIDTH 722 0
DWIDTH 12 0
BBX 12 15 0 -3
BITMAP
7870
3020
3020
3020
6040
6040
6040
C040
C080
C080
6100
3E00
0800
0800
0600
ENDCHAR

STARTCHAR Uacute
ENCODING 218
SWIDTH 722 0
DWIDTH 12 0
BBX 12 15 0 0
BITMAP
0080
0100
0000
7870
3020
3020
3020
6040
6040
6040
C040
C080
C080
6100
3E00
ENDCHAR

STARTCHAR Ucircumflex
ENCODING 219
SWIDTH 722 0
DWIDTH 12 0
BBX 12 15 0 0
BITMAP
0180
0240
0000
7870
3020
3020
3020
6040
6040
6040
C040
C080
C080
6100
3E00
ENDCHAR

STARTCHAR Udieresis
ENCODING 220
SWIDTH 722 0
DWIDTH 12 0
BBX 12 14 0 0
BITMAP
0480
0000
7870
3020
3020
3020
6040
6040
6040
C040
C080
C080
6100
3E00
ENDCHAR

STARTCHAR Utilde
ENCODING 221
SWIDTH 722 0
DWIDTH 12 0
BBX 12 15 0 0
BITMAP
0140
0280
0000
7870
3020
3020
3020
6040
6040
6040
C040
C080
C080
6100
3E00
ENDCHAR

STARTCHAR Umacron
ENCODING 222
SWIDTH 722 0
DWIDTH 12 0
BBX 12 15 0 0
BITMAP
07C0
0000
0000
7870
3020
3020
3020
6040
6040
6040
C040
C080
C080
6100
3E00
ENDCHAR

STARTCHAR germandbls
ENCODING 223
SWIDTH 500 0
DWIDTH 9 0
BBX 12 15 -3 -3
BITMAP
00E0
01B0
0330
0660
0C60
0DC0
0C60
0C60
1860
1AC0
1A80
1B00
3000
B000
E000
ENDCHAR

STARTCHAR amacron
ENCODING 224
SWIDTH 500 0
DWIDTH 9 0
BBX 9 10 0 0
BITMAP
1F00
0000
1D80
3300
6300
6300
C600
CE00
D600
6700
ENDCHAR

STARTCHAR aacute
ENCODING 225
SWIDTH 500 0
DWIDTH 9 0
BBX 9 12 0 0
BITMAP
0200
0400
0000
0000
1D80
3300
6300
6300
C600
CE00
D600
6700
ENDCHAR

STARTCHAR acircumflex
ENCODING 226
SWIDTH 500 0
DWIDTH 9 0
BBX 9 12 0 0
BITMAP
0300
0480
0000
0000
1D80
3300
6300
6300
C600
CE00
D600
6700
ENDCHAR

STARTCHAR atilde
ENCODING 227
SWIDTH 500 0
DWIDTH 9 0
BBX 9 12 0 0
BITMAP
0280
0500
0000
0000
1D80
3300
6300
6300
C600
CE00
D600
6700
ENDCHAR

STARTCHAR adieresis
ENCODING 228
SWIDTH 500 0
DWIDTH 9 0
BBX 9 11 0 0
BITMAP
0480
0000
0000
1D80
3300
6300
6300
C600
CE00
D600
6700
ENDCHAR

STARTCHAR aring
ENCODING 229
SWIDTH 500 0
DWIDTH 9 0
BBX 9 13 0 0
BITMAP
0200
0500
0200
0000
0000
1D80
3300
6300
6300
C600
CE00
D600
6700
ENDCHAR

STARTCHAR ae
ENCODING 230
SWIDTH 667 0
DWIDTH 11 0
BBX 11 8 0 0
BITMAP
0DC0
3360
6660
67C0
C600
CC00
CC40
7380
ENDCHAR

STARTCHAR iogonek
ENCODING 231
SWIDTH 278 0
DWIDTH 5 0
BBX 3 11 1 -3
BITMAP
E0
60
60
60
C0
C0
C0
E0
80
80
60
ENDCHAR

STARTCHAR ccaron
ENCODING 232
SWIDTH 444 0
DWIDTH 8 0
BBX 8 12 1 0
BITMAP
09
06
00
00
1C
36
66
C0
C0
C0
C4
78
ENDCHAR

STARTCHAR eacute
ENCODING 233
SWIDTH 444 0
DWIDTH 8 0
BBX 7 12 1 0
BITMAP
02
04
00
00
1C
36
66
FC
C0
C0
C4
78
ENDCHAR

STARTCHAR eogonek
ENCODING 234
SWIDTH 444 0
DWIDTH 8 0
BBX 7 11 1 -3
BITMAP
1C
36
66
FC
C0
C0
C4
78
20
20
18
ENDCHAR

STARTCHAR edieresis
ENCODING 235
SWIDTH 444 0
DWIDTH 8 0
BBX 7 11 1 0
BITMAP
12
00
00
1C
36
66
FC
C0
C0
C4
78
ENDCHAR

STARTCHAR edotaccent
ENCODING 236
SWIDTH 444 0
DWIDTH 8 0
BBX 7 11 1 0
BITMAP
04
00
00
1C
36
66
FC
C0
C0
C4
78
ENDCHAR

STARTCHAR iacute
ENCODING 237
SWIDTH 278 0
DWIDTH 5 0
BBX 4 11 1 0
BITMAP
10
20
00
E0
60
60
60
C0
C0
C0
E0
ENDCHAR

STARTCHAR icircumflex
ENCODING 238
SWIDTH 278 0
DWIDTH 5 0
BBX 5 12 1 0
BITMAP
30
48
00
00
E0
60
60
60
C0
C0
C0
E0
ENDCHAR

STARTCHAR imacron
ENCODING 239
SWIDTH 278 0
DWIDTH 5 0
BBX 5 11 1 0
BITMAP
78
00
00
E0
60
60
60
C0
C0
C0
E0
ENDCHAR

STARTCHAR dcroat
ENCODING 240
SWIDTH 500 0
DWIDTH 9 0
BBX 10 12 0 0
BITMAP
0380
0180
0FC0
0180
1B00
3700
6300
6300
C600
C600
CE00
7700
ENDCHAR

STARTCHAR ncommaaccent
ENCODING 241
SWIDTH 500 0
DWIDTH 8 0
BBX 8 12 0 -4
BITMAP
E6
6B
73
63
C6
C6
C6
C7
00
30
10
20
ENDCHAR

STARTCHAR omacron
ENCODING 242
SWIDTH 500 0
DWIDTH 8 0
BBX 8 11 0 0
BITMAP
1F
00
00
1E
33
63
C3
C3
C6
CC
78
ENDCHAR

STARTCHAR kcommaaccent
ENCODING 243
SWIDTH 444 0
DWIDTH 7 0
BBX 8 16 0 -4
BITMAP
70
30
30
30
66
64
68
70
D8
CC
CD
C6
00
30
10
20
ENDCHAR

STARTCHAR ocircumflex
ENCODING 244
SWIDTH 500 0
DWIDTH 8 0
BBX 8 12 0 0
BITMAP
06
09
00
00
1E
33
63
C3
C3
C6
CC
78
ENDCHAR

STARTCHAR otilde
ENCODING 245
SWIDTH 500 0
DWIDTH 8 0
BBX 8 12 0 0
BITMAP
05
0A
00
00
1E
33
63
C3
C3
C6
CC
78
ENDCHAR

STARTCHAR odieresis
ENCODING 246
SWIDTH 500 0
DWIDTH 8 0
BBX 8 11 0 0
BITMAP
09
00
00
1E
33
63
C3
C3
C6
CC
78
ENDCHAR

STARTCHAR divide
ENCODING 247
SWIDTH 675 0
DWIDTH 11 0
BBX 9 7 1 1
BITMAP
0800
0000
0000
FF80
0000
0000
0800
ENDCHAR

STARTCHAR oslash
ENCODING 248
SWIDTH 500 0
DWIDTH 8 0
BBX 9 9 -1 0
BITMAP
0080
0F00
1980
3380
6580
6980
7300
6600
BC00
ENDCHAR

STARTCHAR uogonek
ENCODING 249
SWIDTH 500 0
DWIDTH 8 0
BBX 8 11 0 -3
BITMAP
E3
63
63
63
C6
CE
D6
67
04
04
03
ENDCHAR

STARTCHAR uacute
ENCODING 250
SWIDTH 500 0
DWIDTH 8 0
BBX 8 11 0 0
BITMAP
04
08
00
E3
63
63
63
C6
CE
D6
67
ENDCHAR

STARTCHAR ucircumflex
ENCODING 251
SWIDTH 500 0
DWIDTH 8 0
BBX 8 12 0 0
BITMAP
0C
12
00
00
E3
63
63
63
C6
CE
D6
67
ENDCHAR

STARTCHAR udieresis
ENCODING 252
SWIDTH 500 0
DWIDTH 8 0
BBX 8 11 0 0
BITMAP
12
00
00
E3
63
63
63
C6
CE
D6
67
ENDCHAR

STARTCHAR utilde
ENCODING 253
SWIDTH 500 0
DWIDTH 8 0
BBX 8 12 0 0
BITMAP
0A
14
00
00
E3
63
63
63
C6
CE
D6
67
ENDCHAR

STARTCHAR umacron
ENCODING 254
SWIDTH 500 0
DWIDTH 8 0
BBX 8 11 0 0
BITMAP
1F
00
00
E3
63
63
63
C6
CE
D6
67
ENDCHAR

STARTCHAR dotaccent
ENCODING 255
SWIDTH 333 0
DWIDTH 6 0
BBX 1 1 3 9
BITMAP
80
ENDCHAR
ENDFONT
